<mxfile host="app.diagrams.net" modified="2024-03-15T16:37:27.181Z" agent="Mozilla/5.0 (Windows NT 10.0; Win64; x64) AppleWebKit/537.36 (KHTML, like Gecko) Chrome/122.0.0.0 Safari/537.36 Edg/122.0.0.0" etag="VYxkrrv6jzCT5S2CDyGy" version="24.0.6" type="github">
  <diagram name="Страница — 1" id="RWMB_ImXay5igspLXjax">
    <mxGraphModel dx="1002" dy="577" grid="1" gridSize="10" guides="1" tooltips="1" connect="1" arrows="1" fold="1" page="1" pageScale="1" pageWidth="827" pageHeight="1169" math="0" shadow="0">
      <root>
        <mxCell id="0" />
        <mxCell id="1" parent="0" />
        <mxCell id="-G5OJrmHk-mhB26xI_N0-1" value="&lt;p class=&quot;MsoNormal&quot;&gt;&lt;span style=&quot;mso-spacerun:&#39;yes&#39;;font-family:&#39;Times New Roman&#39;;mso-fareast-font-family:Calibri;&lt;br/&gt;font-size:14,0000pt;&quot;&gt;Желание преподавателей дальше пользоваться бумажной версией журнала&lt;/span&gt;&lt;/p&gt;" style="rounded=0;whiteSpace=wrap;html=1;strokeColor=#7F00FF;strokeWidth=3;" vertex="1" parent="1">
          <mxGeometry x="560" y="440" width="200" height="80" as="geometry" />
        </mxCell>
        <mxCell id="-G5OJrmHk-mhB26xI_N0-2" value="" style="endArrow=classic;html=1;rounded=0;strokeColor=#7F00FF;strokeWidth=3;" edge="1" parent="1" target="-G5OJrmHk-mhB26xI_N0-1">
          <mxGeometry width="50" height="50" relative="1" as="geometry">
            <mxPoint x="40" y="480" as="sourcePoint" />
            <mxPoint x="440" y="420" as="targetPoint" />
          </mxGeometry>
        </mxCell>
        <mxCell id="-G5OJrmHk-mhB26xI_N0-4" value="&lt;p class=&quot;MsoNormal&quot;&gt;&lt;span style=&quot;mso-spacerun:&#39;yes&#39;;font-family:&#39;Times New Roman&#39;;mso-fareast-font-family:Calibri;&lt;br/&gt;font-size:14,0000pt;&quot;&gt;Человеческий фактор&lt;/span&gt;&lt;/p&gt;" style="rounded=0;whiteSpace=wrap;html=1;strokeColor=#7F00FF;strokeWidth=3;" vertex="1" parent="1">
          <mxGeometry x="294" y="330" width="120" height="30" as="geometry" />
        </mxCell>
        <mxCell id="-G5OJrmHk-mhB26xI_N0-5" value="&lt;p class=&quot;MsoNormal&quot;&gt;&lt;span style=&quot;mso-spacerun:&#39;yes&#39;;font-family:&#39;Times New Roman&#39;;mso-fareast-font-family:Calibri;&lt;br/&gt;font-size:14,0000pt;&quot;&gt;Внешние проблемы&lt;/span&gt;&lt;/p&gt;" style="rounded=0;whiteSpace=wrap;html=1;strokeColor=#7F00FF;strokeWidth=3;" vertex="1" parent="1">
          <mxGeometry x="320" y="650" width="120" height="30" as="geometry" />
        </mxCell>
        <mxCell id="-G5OJrmHk-mhB26xI_N0-6" value="&lt;p class=&quot;MsoNormal&quot;&gt;&lt;font face=&quot;Times New Roman&quot;&gt;Исходный код&lt;/font&gt;&lt;/p&gt;" style="rounded=0;whiteSpace=wrap;html=1;strokeColor=#7F00FF;strokeWidth=3;" vertex="1" parent="1">
          <mxGeometry x="64" y="650" width="120" height="30" as="geometry" />
        </mxCell>
        <mxCell id="-G5OJrmHk-mhB26xI_N0-7" value="" style="endArrow=classic;html=1;rounded=0;strokeColor=#7F00FF;strokeWidth=3;" edge="1" parent="1" source="-G5OJrmHk-mhB26xI_N0-6">
          <mxGeometry width="50" height="50" relative="1" as="geometry">
            <mxPoint x="99.99666666666674" y="600" as="sourcePoint" />
            <mxPoint x="160" y="480" as="targetPoint" />
          </mxGeometry>
        </mxCell>
        <mxCell id="-G5OJrmHk-mhB26xI_N0-8" value="" style="endArrow=classic;html=1;rounded=0;strokeColor=#7F00FF;strokeWidth=3;" edge="1" parent="1" source="-G5OJrmHk-mhB26xI_N0-5">
          <mxGeometry width="50" height="50" relative="1" as="geometry">
            <mxPoint x="379.9966666666667" y="600" as="sourcePoint" />
            <mxPoint x="420" y="480" as="targetPoint" />
          </mxGeometry>
        </mxCell>
        <mxCell id="-G5OJrmHk-mhB26xI_N0-10" value="" style="endArrow=classic;html=1;rounded=0;strokeColor=#7F00FF;strokeWidth=3;" edge="1" parent="1" source="-G5OJrmHk-mhB26xI_N0-4">
          <mxGeometry width="50" height="50" relative="1" as="geometry">
            <mxPoint x="420" y="360" as="sourcePoint" />
            <mxPoint x="320" y="480" as="targetPoint" />
          </mxGeometry>
        </mxCell>
        <mxCell id="-G5OJrmHk-mhB26xI_N0-11" value="" style="endArrow=classic;html=1;rounded=0;strokeColor=#7F00FF;" edge="1" parent="1">
          <mxGeometry width="50" height="50" relative="1" as="geometry">
            <mxPoint x="54" y="420" as="sourcePoint" />
            <mxPoint x="334" y="420" as="targetPoint" />
          </mxGeometry>
        </mxCell>
        <mxCell id="-G5OJrmHk-mhB26xI_N0-12" value="" style="endArrow=classic;html=1;rounded=0;strokeColor=#7F00FF;" edge="1" parent="1">
          <mxGeometry width="50" height="50" relative="1" as="geometry">
            <mxPoint x="264" y="610" as="sourcePoint" />
            <mxPoint x="134" y="610" as="targetPoint" />
          </mxGeometry>
        </mxCell>
        <mxCell id="-G5OJrmHk-mhB26xI_N0-13" value="" style="endArrow=classic;html=1;rounded=0;strokeColor=#7F00FF;" edge="1" parent="1">
          <mxGeometry width="50" height="50" relative="1" as="geometry">
            <mxPoint x="600" y="610" as="sourcePoint" />
            <mxPoint x="390" y="610" as="targetPoint" />
          </mxGeometry>
        </mxCell>
        <mxCell id="-G5OJrmHk-mhB26xI_N0-16" value="Нежелание разбираться в новом приложении" style="text;html=1;align=center;verticalAlign=middle;resizable=0;points=[];autosize=1;strokeColor=none;fillColor=none;" vertex="1" parent="1">
          <mxGeometry x="54" y="390" width="280" height="30" as="geometry" />
        </mxCell>
        <mxCell id="-G5OJrmHk-mhB26xI_N0-17" value="Оптимизировать работу&lt;div&gt;приложения&lt;/div&gt;" style="text;html=1;align=center;verticalAlign=middle;resizable=0;points=[];autosize=1;strokeColor=none;fillColor=none;" vertex="1" parent="1">
          <mxGeometry x="134" y="565" width="160" height="40" as="geometry" />
        </mxCell>
        <mxCell id="-G5OJrmHk-mhB26xI_N0-18" value="Происшествия хакерского&lt;div&gt;характера / кражи персональных&lt;/div&gt;&lt;div&gt;данных в других подобных&lt;/div&gt;&lt;div&gt;приложениях&lt;/div&gt;" style="text;html=1;align=center;verticalAlign=middle;resizable=0;points=[];autosize=1;strokeColor=none;fillColor=none;" vertex="1" parent="1">
          <mxGeometry x="400" y="535" width="210" height="70" as="geometry" />
        </mxCell>
      </root>
    </mxGraphModel>
  </diagram>
</mxfile>
